<?xml version="1.0" standalone="no"?>
<!DOCTYPE svg PUBLIC "-//W3C//DTD SVG 20010904//EN"
 "http://www.w3.org/TR/2001/REC-SVG-20010904/DTD/svg10.dtd">
<svg version="1.0" xmlns="http://www.w3.org/2000/svg"
 width="512.000000pt" height="512.000000pt" viewBox="0 0 512.000000 512.000000"
 preserveAspectRatio="xMidYMid meet">
<metadata>
Created by potrace 1.14, written by Peter Selinger 2001-2017
</metadata>
<g transform="translate(0.000000,512.000000) scale(0.100000,-0.100000)"
fill="#000000" stroke="none">
<path d="M1170 4250 c-297 -62 -532 -233 -640 -467 -56 -121 -79 -242 -74
-392 l2 -86 -47 -40 c-98 -83 -193 -218 -183 -258 15 -63 75 -87 257 -102 38
-3 70 -7 71 -8 11 -10 80 -304 90 -376 3 -25 7 -47 9 -50 2 -3 6 -31 9 -61 4
-30 9 -66 11 -80 3 -14 7 -41 10 -60 35 -229 116 -444 214 -568 169 -214 423
-373 711 -447 87 -23 96 -24 161 -31 l56 -7 10 -55 c15 -80 8 -157 -16 -191
-30 -42 -113 -69 -286 -96 -56 -8 -108 -36 -123 -65 -16 -31 -10 -107 11 -127
26 -27 181 -21 327 13 168 38 257 93 298 182 23 51 26 68 24 162 0 58 -3 121
-4 140 -3 38 -3 38 127 54 28 3 61 8 75 11 14 3 44 8 67 11 l41 5 7 -53 c4
-29 8 -66 10 -83 7 -54 7 -160 0 -200 -15 -82 -59 -134 -210 -249 -197 -149
-239 -215 -177 -273 24 -22 33 -25 82 -20 79 7 173 62 340 198 136 111 162
144 186 232 15 59 12 261 -6 362 -5 33 -13 75 -16 94 l-6 34 49 -7 c26 -3 59
-8 73 -11 35 -8 198 -8 240 -1 133 24 197 61 300 175 81 91 103 105 170 116
86 14 155 67 194 150 21 44 44 61 101 77 62 17 86 53 87 132 2 69 -31 124 -88
148 -22 9 -69 30 -106 46 l-68 28 212 140 c117 76 289 189 383 251 93 61 175
116 182 122 7 6 14 11 17 11 2 0 102 63 222 141 229 148 309 208 319 239 10
32 -22 88 -87 153 -187 187 -538 331 -975 402 -104 17 -254 26 -295 18 -38 -7
-64 -36 -160 -176 -164 -240 -298 -391 -385 -432 -127 -62 -366 61 -510 263
-25 34 -67 115 -94 179 -96 226 -195 381 -333 518 -149 149 -303 233 -491 270
-96 19 -271 16 -375 -5z"/>
</g>
</svg>
